<?xml version="1.0" standalone="no"?>
<!DOCTYPE svg PUBLIC "-//W3C//DTD SVG 20010904//EN"
 "http://www.w3.org/TR/2001/REC-SVG-20010904/DTD/svg10.dtd">
<svg version="1.0" xmlns="http://www.w3.org/2000/svg"
 width="460.000000pt" height="460.000000pt" viewBox="0 0 460.000000 460.000000"
 preserveAspectRatio="xMidYMid meet">
<metadata>
Created by potrace 1.14, written by Peter Selinger 2001-2017
</metadata>
<g transform="translate(0.000000,460.000000) scale(0.100000,-0.100000)"
fill="#000000" stroke="none">
<path d="M2060 3573 c-14 -2 -35 -9 -47 -15 -13 -6 -26 -8 -29 -5 -4 4 -12 0
-18 -9 -7 -9 -40 -19 -86 -25 -52 -8 -78 -16 -87 -29 -7 -10 -28 -21 -47 -24
-19 -4 -51 -20 -71 -36 -20 -16 -46 -32 -57 -36 -22 -7 -92 -50 -122 -74 -99
-83 -216 -193 -216 -203 0 -5 -15 -32 -33 -60 -19 -29 -43 -70 -54 -92 -11
-22 -37 -71 -56 -108 -21 -39 -30 -66 -22 -63 23 8 27 -25 5 -41 -11 -8 -20
-25 -20 -39 0 -14 -4 -23 -9 -20 -16 10 -20 -36 -15 -149 3 -60 6 -186 8 -280
2 -93 7 -186 11 -205 5 -19 7 -53 6 -75 -3 -64 19 -175 40 -196 28 -28 58 -92
65 -140 5 -31 19 -56 49 -89 23 -25 48 -53 56 -63 17 -23 153 -156 194 -192
33 -28 37 -32 66 -64 10 -12 31 -21 47 -21 39 -1 112 -36 152 -75 31 -30 52
-38 200 -74 91 -22 189 -42 217 -44 73 -6 231 11 268 29 17 8 44 16 61 18 80
11 160 29 217 51 93 34 177 77 171 87 -3 4 2 8 10 8 42 0 169 96 226 170 14
18 33 40 43 49 81 71 122 125 136 178 6 23 16 45 22 49 14 8 79 149 79 169 0
8 11 43 24 77 41 107 58 177 62 247 2 37 7 78 12 92 13 33 7 308 -7 339 -10
23 -11 23 -7 2 2 -12 0 -20 -5 -17 -22 14 -69 160 -72 225 -1 26 -5 36 -14 33
-9 -3 -13 4 -13 20 0 14 -5 38 -11 54 -10 26 -12 27 -19 8 -7 -17 -13 -9 -39
46 -37 82 -78 144 -125 189 -20 19 -36 40 -36 46 0 7 -17 26 -37 43 -135 114
-161 134 -184 147 -15 7 -38 15 -51 18 -35 6 -88 34 -88 46 0 6 -14 10 -31 10
-16 0 -54 11 -82 24 -29 14 -70 27 -92 30 -80 12 -112 18 -207 37 -90 18 -277
30 -338 22z m914 -969 c29 -29 35 -51 38 -136 3 -94 -7 -118 -48 -118 -13 0
-25 3 -25 8 -1 4 -2 54 -3 111 -2 89 -5 106 -22 118 -16 12 -17 15 -4 23 22
14 47 12 64 -6z m-463 -117 c15 -58 7 -134 -19 -159 -27 -27 -42 -15 -42 33
l0 39 -37 -20 c-78 -41 -89 -6 -14 41 47 30 49 32 40 62 -12 44 -11 53 8 72
16 16 18 16 35 -5 10 -12 23 -41 29 -63z m280 -3 c6 -8 9 -38 7 -71 -2 -40 1
-61 10 -68 7 -6 11 -17 7 -25 -5 -16 -88 -70 -105 -70 -17 0 -11 44 11 79 12
21 21 54 22 85 2 45 0 51 -20 54 -12 2 -30 -5 -41 -16 -16 -16 -19 -30 -15
-80 5 -60 -7 -86 -29 -64 -11 11 -21 162 -10 163 24 2 52 10 81 22 37 16 64
13 82 -9z m-914 -12 c21 -13 33 -61 33 -130 0 -71 -8 -94 -34 -98 -24 -3 -29
12 -33 95 -2 44 -10 86 -19 99 -8 12 -12 27 -9 32 7 12 45 13 62 2z m417 -28
c11 -10 16 -34 16 -74 0 -38 4 -60 13 -63 18 -6 -6 -47 -49 -81 -48 -38 -66
-20 -23 22 25 24 31 38 30 69 0 39 -5 70 -16 104 -6 17 0 39 10 39 2 0 11 -7
19 -16z m-708 -51 c7 -10 14 -30 14 -44 0 -35 9 -41 34 -24 48 35 50 1 1 -42
-50 -45 -45 -93 8 -79 37 9 58 58 60 137 1 69 2 70 27 67 24 -3 25 -6 25 -65
0 -48 -5 -68 -23 -92 -12 -17 -22 -37 -22 -45 0 -19 -38 -46 -66 -46 -34 0
-82 32 -89 59 -7 26 -5 159 3 179 6 16 12 15 28 -5z m629 -45 c38 17 47 15 35
-8 -6 -11 -20 -20 -30 -20 -22 0 -24 -6 -21 -63 2 -37 -12 -67 -30 -67 -10 0
-41 57 -44 80 0 8 -5 36 -9 62 -5 26 -5 56 -1 65 6 15 12 12 40 -21 31 -37 35
-39 60 -28z m-155 28 c0 -10 -94 -56 -116 -56 -16 0 3 22 39 44 47 28 77 33
77 12z m810 -122 c0 -40 18 -51 51 -33 24 13 123 38 152 39 34 0 16 -18 -40
-40 -32 -13 -77 -31 -100 -42 -55 -24 -80 -23 -94 3 -10 20 -6 90 7 111 11 17
24 -4 24 -38z m-342 -61 c2 -37 7 -53 17 -53 8 0 16 -4 19 -8 5 -9 -91 -62
-111 -62 -20 0 -15 17 8 33 16 12 20 23 17 63 -4 56 -16 64 -52 32 -22 -20
-26 -32 -29 -90 -3 -73 -8 -84 -32 -75 -11 5 -15 22 -15 76 0 85 6 101 36 101
13 0 24 4 24 9 0 14 50 30 85 28 29 -2 30 -4 33 -54z m-618 -9 c9 -23 3 -114
-15 -219 -2 -11 -4 -28 -4 -37 -1 -18 -27 -48 -42 -48 -10 0 -9 9 22 174 24
123 20 137 -32 116 -17 -8 -40 -22 -50 -33 -11 -12 -24 -17 -35 -13 -15 6 -14
9 7 32 29 31 74 52 112 53 21 1 30 -5 37 -25z"/>
</g>
</svg>
